<?xml version="1.0" standalone="no"?>
<!DOCTYPE svg PUBLIC "-//W3C//DTD SVG 20010904//EN"
 "http://www.w3.org/TR/2001/REC-SVG-20010904/DTD/svg10.dtd">
<svg version="1.0" xmlns="http://www.w3.org/2000/svg"
 width="1276.000000pt" height="1280.000000pt" viewBox="0 0 1276.000000 1280.000000"
 preserveAspectRatio="xMidYMid meet">

<g transform="translate(0.000000,1280.000000) scale(0.100000,-0.100000)"
fill="#000000" stroke="none">
<path d="M6355 12779 c-19 -20 -19 -20 24 -13 40 6 44 5 37 -11 -4 -10 -44
-167 -90 -349 -233 -923 -375 -1584 -437 -2031 -14 -102 -17 -311 -7 -460 l7
-100 -14 100 c-7 55 -14 101 -14 103 -1 4 -101 -3 -276 -18 -130 -11 -300 -26
-480 -40 -71 -6 -175 -15 -230 -20 -55 -5 -142 -12 -192 -15 l-93 -7 -2 39
c-3 80 -16 -150 -18 -327 -2 -151 -4 -175 -12 -130 -14 89 7 559 32 695 18 96
42 206 58 265 8 30 17 69 19 85 3 17 9 35 13 40 5 6 14 30 21 55 7 25 14 50
15 55 10 32 73 206 87 239 10 21 17 42 17 46 0 4 11 33 25 64 14 31 24 57 24
59 -3 5 58 136 108 236 29 57 53 108 53 113 0 4 -7 8 -15 8 -8 0 -15 5 -15 10
0 6 -9 10 -20 10 -11 0 -20 5 -20 10 0 6 -9 10 -20 10 -11 0 -20 5 -20 10 0 6
-6 10 -14 10 -18 0 -76 32 -76 43 0 4 -6 7 -13 7 -7 0 -32 9 -55 20 -22 11
-45 20 -51 20 -5 0 -11 4 -13 10 -1 5 -15 11 -30 12 -16 1 -28 6 -28 10 0 4
-9 8 -20 8 -11 0 -20 5 -20 10 0 6 -9 10 -19 10 -11 0 -23 5 -26 10 -3 6 -19
10 -35 10 -15 0 -30 4 -32 9 -1 5 -14 11 -28 13 -14 1 -30 8 -36 13 -6 6 -31
17 -55 24 -24 7 -58 17 -75 22 -17 5 -38 9 -48 9 -9 0 -14 5 -11 10 4 6 -8 10
-29 10 -20 0 -36 5 -36 10 0 6 -24 10 -52 10 -35 0 -48 3 -39 9 9 6 -2 11 -35
14 -27 3 -71 11 -99 17 -27 7 -77 14 -110 17 -33 3 -63 9 -66 15 -7 12 -154
27 -342 36 l-137 7 0 -27 c0 -41 54 -240 98 -363 40 -111 101 -252 165 -380
19 -38 59 -126 88 -195 67 -157 157 -333 242 -475 37 -60 59 -100 48 -88 -10
12 -44 65 -76 118 -31 52 -59 95 -62 95 -5 0 -107 -83 -123 -100 -3 -3 -34
-30 -70 -60 -36 -30 -72 -62 -80 -70 -8 -8 -40 -35 -70 -60 -30 -25 -62 -52
-70 -60 -8 -8 -40 -35 -70 -60 -30 -25 -62 -52 -70 -60 -8 -8 -40 -35 -70 -60
-30 -25 -62 -52 -70 -60 -8 -8 -44 -40 -80 -70 -36 -30 -67 -57 -70 -60 -3 -3
-34 -30 -70 -60 -35 -30 -78 -68 -95 -84 l-30 -28 -6 43 -6 44 -1 -41 c-3 -76
11 -253 19 -248 5 3 9 -24 9 -60 0 -37 4 -66 10 -66 6 0 10 -23 10 -51 0 -28
4 -48 9 -44 13 8 23 -28 17 -61 -3 -16 -1 -31 5 -35 6 -3 12 -24 13 -45 2 -21
8 -40 13 -41 6 -2 9 -17 7 -32 -2 -19 2 -31 11 -35 16 -6 21 -66 6 -66 -5 0
-17 26 -25 58 -31 111 -49 180 -66 257 -6 28 -15 66 -20 85 -35 140 -40 345
-21 795 10 234 11 343 3 375 -9 41 -10 37 -11 -57 -1 -61 -5 -103 -11 -103 -6
0 -10 -57 -10 -150 l0 -150 -150 0 c-93 0 -150 -4 -150 -10 0 -5 -19 -10 -43
-10 -63 0 -264 -28 -287 -40 -10 -5 -41 -10 -69 -10 -28 0 -51 -4 -51 -10 0
-5 -20 -10 -44 -10 -25 0 -48 -4 -51 -10 -3 -5 -27 -10 -53 -10 -34 0 -43 -3
-32 -10 11 -7 4 -10 -27 -10 -24 0 -43 -4 -43 -10 0 -5 -16 -10 -35 -10 -19 0
-35 -4 -35 -10 0 -5 -13 -10 -30 -10 -17 0 -30 -5 -30 -12 0 -9 -4 -8 -10 2
-5 8 -10 10 -10 5 0 -6 -19 -16 -42 -23 -43 -14 -98 -36 -130 -53 -10 -5 -27
-9 -37 -9 -11 0 -23 -4 -26 -10 -3 -5 -15 -10 -26 -10 -10 0 -19 -4 -19 -10 0
-5 -14 -10 -31 -10 -17 0 -28 -4 -24 -10 4 -6 -5 -10 -19 -10 -14 0 -26 -4
-26 -10 0 -5 -12 -10 -26 -10 -14 0 -23 -3 -20 -8 2 -4 -16 -16 -40 -26 -24
-10 -44 -22 -44 -27 0 -5 -11 -9 -25 -9 -14 0 -25 -4 -25 -10 0 -5 -9 -10 -20
-10 -11 0 -20 -4 -20 -10 0 -5 -9 -10 -20 -10 -11 0 -20 -4 -20 -10 0 -5 -7
-10 -15 -10 -8 0 -15 -4 -15 -9 0 -4 57 -55 128 -112 225 -182 502 -420 640
-549 440 -409 548 -497 1123 -916 530 -386 844 -593 1655 -1091 296 -182 333
-201 435 -222 24 -5 96 -23 159 -39 211 -56 864 -219 965 -242 55 -12 118 -28
140 -35 22 -8 65 -19 95 -26 87 -18 88 -19 67 -30 -9 -6 -21 -8 -26 -5 -5 3
-12 -1 -15 -10 -4 -9 -13 -14 -21 -10 -8 3 -15 1 -15 -3 0 -5 6 -12 13 -14 6
-3 0 -6 -15 -6 -16 -1 -28 -5 -28 -11 0 -5 -13 -10 -30 -10 -16 0 -30 -4 -30
-10 0 -5 -9 -10 -20 -10 -11 0 -20 -4 -20 -10 0 -5 -9 -10 -19 -10 -11 0 -22
-4 -25 -8 -3 -4 -28 -14 -55 -22 -28 -7 -51 -16 -51 -20 0 -3 -21 -12 -47 -19
-27 -8 -52 -17 -58 -21 -9 -5 -122 -49 -166 -63 -13 -4 -16 0 -13 16 3 16 1
15 -8 -5 -9 -21 -19 -28 -39 -28 -30 0 -47 15 -27 23 7 3 -20 6 -61 6 -41 1
-125 5 -185 11 -61 5 -183 14 -271 20 -88 6 -221 15 -295 20 -74 5 -201 14
-282 20 -82 6 -210 15 -285 20 -76 5 -208 14 -293 20 -150 10 -277 19 -573 40
-289 20 -287 20 -287 4 0 -8 9 -14 20 -14 11 0 20 -4 20 -10 0 -5 9 -10 20
-10 11 0 23 -6 26 -13 3 -9 16 -12 36 -9 21 3 29 1 24 -7 -9 -14 -66 -15 -66
-1 0 6 -9 10 -20 10 -11 0 -20 5 -20 10 0 6 -9 10 -20 10 -11 0 -20 5 -20 10
0 6 -11 10 -25 10 -15 0 -25 6 -25 15 0 8 -6 12 -13 9 -7 -2 -30 2 -50 11 -27
11 -35 19 -31 33 5 14 4 15 -5 2 -10 -13 -13 -13 -25 3 -7 9 -21 17 -30 17 -9
0 -16 5 -16 10 0 6 -9 10 -20 10 -11 0 -20 5 -20 10 0 6 -9 10 -20 10 -11 0
-20 5 -20 10 0 6 -9 10 -20 10 -11 0 -20 5 -20 10 0 6 -12 10 -26 10 -14 0
-23 4 -19 10 3 6 -1 10 -9 10 -9 0 -16 5 -16 10 0 6 -9 10 -20 10 -11 0 -20 7
-20 15 0 8 -9 15 -20 15 -11 0 -20 5 -20 10 0 6 -7 10 -15 10 -8 0 -15 5 -15
10 0 6 -8 10 -18 10 -10 0 -24 9 -32 20 -8 11 -21 20 -30 20 -9 0 -22 9 -30
20 -8 11 -20 20 -27 20 -7 0 -13 5 -13 10 0 6 -8 10 -18 10 -10 0 -25 11 -32
25 -7 13 -17 22 -21 19 -4 -2 -19 7 -33 21 -14 14 -29 25 -33 25 -5 0 -15 9
-23 20 -8 11 -20 20 -28 20 -7 0 -10 4 -7 10 3 6 -4 10 -16 10 -19 0 -20 -2
-8 -17 13 -16 12 -17 -3 -4 -10 7 -15 17 -12 22 6 10 -10 27 -41 46 -11 6 -19
16 -17 23 1 6 -2 9 -8 5 -5 -3 -13 1 -16 9 -3 9 -27 37 -53 63 -26 27 -72 77
-102 113 -30 36 -66 77 -81 91 -16 15 -28 30 -28 34 0 15 -114 140 -124 137
-6 -2 -8 0 -4 4 8 7 -23 53 -73 109 -52 57 -69 78 -69 84 0 3 -10 17 -23 31
-12 14 -29 35 -37 47 -114 164 -150 206 -150 173 0 -5 -7 -10 -15 -10 -9 0
-26 -9 -38 -20 -26 -25 -95 -70 -105 -70 -4 0 -14 -9 -22 -20 -8 -11 -21 -20
-30 -20 -9 0 -22 -9 -30 -20 -8 -11 -20 -20 -28 -20 -7 0 -19 -6 -26 -12 -7
-7 -25 -22 -41 -33 -15 -11 -43 -35 -61 -52 -18 -18 -38 -33 -44 -33 -5 0 -10
-4 -10 -10 0 -5 -7 -10 -15 -10 -8 0 -15 -4 -15 -10 0 -5 -7 -10 -15 -10 -8 0
-14 -4 -13 -9 2 -5 0 -9 -5 -10 -12 -1 -57 -49 -57 -61 0 -5 -3 -9 -8 -8 -4 2
-18 -5 -32 -15 -13 -9 -21 -17 -16 -17 4 0 -6 -11 -22 -25 -17 -14 -35 -25
-41 -25 -6 0 -11 -5 -11 -11 0 -6 -23 -33 -51 -60 -28 -27 -48 -49 -44 -49 3
0 -21 -27 -54 -59 -34 -33 -61 -62 -61 -65 0 -3 -13 -20 -30 -38 -54 -61 -80
-93 -80 -101 0 -5 -5 -5 -10 -2 -6 3 -10 -1 -10 -9 0 -9 -4 -16 -10 -16 -5 0
-10 -7 -10 -15 0 -9 -11 -27 -25 -41 -14 -14 -25 -28 -25 -33 0 -4 -13 -23
-30 -41 -16 -18 -30 -39 -30 -45 0 -6 -9 -17 -20 -25 -11 -8 -20 -22 -20 -32
0 -10 -4 -18 -10 -18 -5 0 -10 -8 -10 -18 0 -10 -9 -24 -20 -32 -11 -8 -20
-22 -20 -32 0 -10 -4 -18 -10 -18 -5 0 -10 -7 -10 -15 0 -8 -4 -15 -10 -15
-18 0 -11 -35 10 -50 11 -8 20 -22 20 -32 0 -10 5 -18 10 -18 6 0 10 -7 10
-15 0 -8 5 -15 10 -15 6 0 10 -9 10 -20 0 -11 5 -20 10 -20 6 0 10 -9 10 -21
0 -11 4 -17 10 -14 5 3 10 -1 10 -9 0 -9 4 -16 9 -16 5 0 13 -9 16 -20 4 -11
20 -35 36 -52 16 -18 29 -37 29 -43 0 -6 9 -17 20 -25 11 -8 20 -20 20 -27 0
-7 18 -32 40 -55 22 -24 40 -46 40 -50 0 -5 7 -8 16 -8 8 0 13 -4 9 -9 -3 -6
15 -30 40 -55 25 -25 45 -48 45 -51 0 -10 49 -55 60 -55 6 0 8 -4 5 -10 -3 -5
-1 -10 5 -10 6 0 9 -3 7 -7 -2 -5 20 -32 49 -61 30 -29 54 -49 54 -46 0 4 8
-3 19 -14 10 -12 24 -22 30 -22 7 0 9 -4 6 -10 -3 -6 -2 -10 3 -10 14 0 102
-87 102 -101 0 -7 3 -9 6 -6 4 4 20 -5 36 -18 16 -14 34 -25 39 -25 6 0 7 -4
4 -10 -3 -6 -1 -10 5 -10 7 0 24 -13 40 -30 15 -16 33 -30 40 -32 8 -2 26 -15
42 -30 15 -16 32 -28 37 -28 6 0 21 -11 35 -25 14 -14 30 -25 36 -25 6 0 20
-9 32 -20 12 -11 30 -20 40 -20 11 0 16 -4 13 -10 -3 -5 1 -10 9 -10 9 0 16
-4 16 -10 0 -5 9 -10 20 -10 11 0 20 -7 20 -16 0 -8 4 -12 10 -9 5 3 10 1 10
-5 0 -6 5 -8 10 -5 5 3 10 2 10 -3 0 -5 11 -14 25 -20 29 -13 31 -24 10 -45
-8 -8 -11 -17 -8 -21 7 -7 -28 -76 -39 -76 -5 0 -8 -9 -8 -20 0 -11 -4 -20
-10 -20 -5 0 -10 -9 -10 -20 0 -11 -4 -20 -10 -20 -5 0 -10 -9 -10 -20 0 -11
-4 -20 -10 -20 -5 0 -10 -11 -10 -25 0 -14 -4 -25 -10 -25 -5 0 -10 -15 -11
-32 0 -18 -3 -27 -6 -20 -8 20 -22 14 -18 -8 2 -11 -1 -20 -6 -20 -6 0 -7 -5
-4 -10 3 -6 2 -10 -3 -10 -6 0 -8 -9 -5 -20 4 -14 0 -20 -12 -20 -11 0 -15 -5
-10 -19 8 -26 -5 -57 -16 -39 -6 9 -9 2 -9 -19 0 -18 -4 -33 -10 -33 -5 0 -10
-17 -10 -37 0 -28 -3 -34 -10 -23 -7 11 -10 3 -10 -30 0 -33 -3 -41 -10 -30
-7 11 -10 2 -10 -33 0 -30 -4 -46 -10 -42 -6 4 -10 -8 -10 -29 0 -20 -4 -36
-9 -36 -5 0 -11 -15 -14 -32 -13 -78 -30 -137 -38 -132 -5 3 -9 -15 -9 -40 0
-25 -4 -46 -10 -46 -5 0 -10 -25 -10 -56 0 -34 -4 -53 -10 -49 -6 4 -10 -22
-10 -72 0 -54 -3 -73 -10 -63 -7 10 -10 -14 -10 -78 0 -60 -4 -91 -10 -87 -7
4 -10 -58 -10 -179 0 -142 -3 -186 -12 -187 -7 0 -3 -5 10 -11 12 -6 22 -15
22 -20 0 -4 7 -8 16 -8 8 0 22 -7 31 -15 8 -8 19 -13 24 -10 5 4 9 1 9 -4 0
-6 9 -11 21 -11 11 0 17 -4 14 -10 -3 -5 3 -10 14 -10 12 0 21 -4 21 -10 0 -5
12 -10 26 -10 14 0 23 -4 19 -10 -4 -6 7 -10 25 -10 18 0 29 -4 25 -10 -3 -5
-1 -10 6 -10 19 0 89 -33 89 -42 0 -4 9 -8 20 -8 11 0 20 -4 20 -10 0 -5 14
-10 30 -10 17 0 30 -4 30 -10 0 -5 11 -10 25 -10 14 0 25 -4 25 -10 0 -5 14
-10 30 -10 17 0 30 -4 30 -10 0 -5 14 -10 30 -10 17 0 30 -4 30 -10 0 -5 15
-10 34 -10 19 0 36 -4 38 -10 2 -5 15 -11 31 -12 15 -1 27 -6 27 -10 0 -4 14
-8 30 -8 17 0 33 -6 36 -13 2 -7 21 -14 41 -15 20 -2 44 -7 54 -12 10 -6 33
-10 53 -10 19 0 38 -5 41 -10 3 -5 30 -10 58 -10 37 0 48 -3 37 -10 -10 -7 6
-10 55 -10 49 0 65 -3 55 -10 -10 -7 16 -10 85 -11 83 -2 91 -3 50 -9 -34 -5
-5 -7 95 -8 84 -1 150 -6 156 -12 14 -14 365 -14 462 0 42 6 142 25 222 41 80
17 201 39 270 50 69 11 175 30 235 41 61 12 122 22 137 21 19 0 25 4 20 15 -4
12 1 14 32 9 20 -3 44 -3 53 0 14 6 14 8 -3 15 -13 5 -9 6 12 3 30 -6 154 38
162 57 2 4 12 8 23 8 10 0 19 5 19 10 0 6 9 10 19 10 11 0 23 5 26 10 3 6 15
10 26 10 10 0 19 5 19 10 0 6 9 10 20 10 11 0 20 6 20 13 0 7 10 13 22 14 27
2 108 43 108 55 0 4 9 8 20 8 11 0 20 5 20 11 0 5 4 8 9 4 5 -3 16 2 24 10 9
8 25 15 37 15 12 0 18 5 15 10 -4 6 5 10 19 10 14 0 26 5 26 10 0 6 7 10 15
10 9 0 12 6 8 17 -5 13 -2 15 15 11 14 -4 22 -2 22 7 0 7 14 19 30 27 16 7 30
16 30 20 0 5 5 8 10 8 12 0 150 91 173 114 9 9 20 16 26 16 6 0 11 5 11 10 0
6 7 10 16 10 9 0 29 14 44 30 15 17 31 30 34 30 7 0 37 24 89 73 22 20 45 37
51 37 6 -1 -18 -28 -54 -61 -63 -59 -63 -59 -15 -25 69 48 119 101 109 117 -5
9 -2 10 10 6 14 -6 17 -3 12 9 -4 11 -2 15 8 11 9 -4 13 -1 10 6 -2 7 9 25 25
41 24 23 33 26 48 17 17 -10 15 -12 -16 -15 -8 0 -16 -8 -18 -16 -4 -13 -3
-13 6 0 11 16 30 -1 104 -93 21 -25 43 -52 50 -59 7 -7 32 -38 57 -68 25 -30
47 -57 50 -60 3 -3 25 -30 50 -60 25 -30 47 -57 50 -60 3 -3 25 -30 50 -60 25
-30 47 -57 50 -60 3 -3 25 -30 50 -60 25 -30 47 -57 50 -60 3 -3 25 -30 50
-60 25 -30 47 -57 50 -60 3 -3 25 -30 50 -60 25 -30 52 -62 60 -70 9 -8 31
-35 50 -60 19 -25 41 -52 50 -60 9 -8 31 -35 50 -60 43 -55 80 -94 80 -83 0 4
5 1 10 -7 8 -12 10 -11 10 5 0 11 9 27 20 35 11 8 20 24 20 35 0 16 2 17 10 5
8 -12 10 -11 10 8 0 12 4 22 8 22 5 0 14 16 22 35 8 19 17 35 20 35 4 0 15 18
25 40 10 22 22 40 27 40 4 0 8 9 8 19 0 11 4 23 10 26 5 3 10 15 10 26 0 10 5
19 10 19 6 0 10 9 10 20 0 11 5 20 10 20 6 0 10 9 10 20 0 11 5 20 10 20 6 0
10 11 10 25 0 14 5 25 10 25 6 0 10 9 10 20 0 11 5 20 10 20 6 0 10 7 10 15 0
20 32 85 42 85 4 0 8 16 8 35 0 19 5 35 10 35 6 0 10 14 10 30 0 17 5 30 10
30 6 0 10 9 10 20 0 11 5 20 10 20 6 0 10 16 10 35 0 19 5 35 10 35 6 0 10 15
10 34 0 19 5 38 10 41 6 3 10 19 10 36 0 16 4 29 9 29 5 0 11 12 14 27 3 16 8
39 11 53 3 14 9 40 12 58 3 18 10 35 15 38 5 3 9 25 9 49 0 24 4 47 10 50 6 3
10 30 10 60 0 30 5 57 10 60 6 3 10 39 11 78 0 50 3 66 9 52 5 -13 9 25 9 103
1 88 4 121 12 116 8 -5 10 44 6 177 -6 237 -64 722 -108 914 -17 77 -34 155
-37 173 -2 18 -8 35 -13 38 -5 3 -9 18 -9 35 0 16 -5 29 -10 29 -6 0 -9 3 -9
8 5 28 -3 72 -11 67 -6 -4 -10 7 -10 24 0 17 -4 31 -10 31 -5 0 -10 6 -10 14
0 7 -20 58 -45 112 -25 55 -60 131 -78 169 -17 39 -57 122 -89 187 -31 64 -54
119 -51 122 4 3 1 6 -5 6 -6 0 -13 14 -17 31 -4 17 -13 33 -21 36 -8 3 -14 14
-14 24 0 10 -4 19 -10 19 -5 0 -10 9 -10 20 0 11 -4 20 -10 20 -5 0 -10 9 -10
20 0 11 -4 20 -10 20 -5 0 -10 11 -10 25 0 14 -4 25 -10 25 -5 0 -10 9 -10 19
0 11 -5 21 -10 23 -6 2 -12 14 -15 27 -2 14 -9 29 -15 35 -5 5 -10 18 -10 28
0 10 -4 18 -10 18 -5 0 -7 7 -4 15 4 8 -1 17 -10 21 -10 4 -16 18 -16 35 0 16
-4 29 -10 29 -5 0 -10 11 -10 25 0 14 -4 25 -10 25 -5 0 -10 14 -10 30 0 17
-4 30 -10 30 -5 0 -10 14 -10 30 0 17 -4 30 -10 30 -5 0 -10 16 -10 35 0 19
-4 35 -10 35 -5 0 -10 11 -10 25 0 14 -4 33 -9 43 -16 31 -30 86 -33 125 -1
22 -7 37 -15 37 -9 0 -13 15 -13 45 0 25 -4 45 -10 45 -6 0 -10 27 -10 61 0
37 -4 58 -10 54 -6 -4 -10 16 -10 54 0 32 -4 61 -9 63 -6 2 -11 44 -12 93 -1
50 -5 92 -10 95 -4 3 -9 175 -11 382 -2 207 0 371 4 365 4 -6 4 -15 2 -19 -3
-4 0 -8 5 -8 7 0 11 32 11 85 0 50 4 85 10 85 6 0 10 30 10 71 0 44 4 68 10
64 6 -4 10 15 10 49 0 31 5 56 10 56 6 0 10 22 10 49 0 28 5 51 12 53 6 2 12
17 13 34 2 16 8 47 15 69 6 22 14 55 17 73 3 19 12 36 19 39 9 3 14 20 14 44
0 21 5 39 10 39 6 0 10 11 10 25 0 14 5 25 10 25 6 0 10 14 10 30 0 17 5 30
10 30 6 0 10 14 10 30 0 17 5 30 10 30 6 0 10 9 10 20 0 11 3 20 8 20 8 0 32
71 32 95 0 8 5 15 10 15 6 0 10 9 10 20 0 11 7 20 15 20 9 0 15 9 15 25 0 14
5 25 10 25 6 0 10 9 10 20 0 11 5 20 10 20 6 0 10 9 10 20 0 11 5 20 10 20 6
0 10 9 10 20 0 11 5 20 10 20 6 0 10 9 10 20 0 11 5 20 10 20 6 0 10 9 10 19
0 11 5 23 10 26 6 3 10 13 10 21 0 8 11 26 24 39 13 13 30 37 37 54 8 17 17
31 21 31 5 0 8 7 8 15 0 8 5 15 10 15 6 0 10 9 10 20 0 11 5 20 10 20 6 0 10
7 10 15 0 8 5 15 10 15 6 0 10 7 10 15 0 8 4 15 9 15 5 0 16 15 24 33 9 17 25
39 36 47 12 8 21 21 21 30 0 9 9 22 20 30 11 8 20 20 20 27 0 7 5 13 10 13 6
0 10 9 10 21 0 11 5 17 10 14 6 -3 10 -2 10 3 0 5 17 27 38 50 66 72 92 102
92 108 0 10 69 74 80 74 6 0 9 3 7 8 -3 4 26 36 64 72 39 36 101 95 140 133
38 37 73 67 77 67 4 0 31 23 60 50 29 28 57 50 64 50 6 0 18 8 27 18 9 9 34
31 56 47 22 16 46 35 53 42 7 7 17 13 21 13 4 0 21 11 37 25 16 14 35 25 42
25 6 0 12 5 12 10 0 6 7 10 15 10 8 0 15 3 15 8 0 4 18 16 40 26 22 11 40 22
40 25 0 3 14 12 30 19 28 13 43 52 20 52 -5 0 -10 8 -10 18 0 10 -9 24 -20 32
-11 8 -20 22 -20 32 0 10 -4 18 -10 18 -5 0 -10 6 -10 14 0 8 -4 16 -8 18 -4
2 -20 24 -35 51 -15 26 -32 47 -37 47 -6 0 -10 7 -10 15 0 8 -4 15 -10 15 -5
0 -10 7 -10 15 0 8 -4 15 -10 15 -5 0 -10 6 -10 13 0 7 -9 19 -20 27 -11 8
-20 20 -20 28 0 7 -10 24 -22 37 -51 53 -68 73 -68 80 0 3 -18 24 -40 45 -22
21 -40 44 -40 50 0 6 -4 8 -10 5 -5 -3 -10 -1 -10 5 0 7 -14 25 -31 41 -17 16
-28 29 -24 29 9 0 -116 121 -168 163 -22 17 -58 50 -81 72 -23 22 -59 54 -81
70 -22 17 -57 47 -77 68 -20 20 -44 37 -52 37 -9 0 -16 5 -16 10 0 6 -4 10
-10 10 -5 0 -19 8 -29 18 -60 54 -83 72 -96 72 -8 0 -15 5 -15 10 0 6 -7 10
-15 10 -8 0 -15 5 -15 10 0 6 -8 10 -18 10 -10 0 -24 9 -32 20 -8 11 -22 20
-32 20 -10 0 -18 3 -18 8 0 4 -16 16 -35 26 -19 11 -35 23 -35 28 0 14 -24 7
-45 -13z m-2385 -2419 c6 -11 8 -20 6 -20 -3 0 -10 9 -16 20 -6 11 -8 20 -6
20 3 0 10 -9 16 -20z m1927 -647 c-2 -21 -4 -6 -4 32 0 39 2 55 4 38 2 -18 2
-50 0 -70z m10 -145 c-2 -18 -4 -4 -4 32 0 36 2 50 4 33 2 -18 2 -48 0 -65z
m-1330 -285 c-2 -16 -4 -5 -4 22 0 28 2 40 4 28 2 -13 2 -35 0 -50z m-10 -120
c-2 -16 -4 -3 -4 27 0 30 2 43 4 28 2 -16 2 -40 0 -55z m20 -135 c-2 -13 -4
-5 -4 17 -1 22 1 32 4 23 2 -10 2 -28 0 -40z m20 30 c-3 -8 -6 -5 -6 6 -1 11
2 17 5 13 3 -3 4 -12 1 -19z m10 -55 c-3 -10 -5 -4 -5 12 0 17 2 24 5 18 2 -7
2 -21 0 -30z m-1717 -53 c0 -16 -4 -30 -10 -30 -5 0 -10 3 -10 8 0 4 -3 17 -6
30 -5 16 -2 22 10 22 11 0 16 -9 16 -30z m1723 -18 c-6 -48 -23 -57 -23 -12 0
17 5 30 10 30 6 0 10 8 10 17 0 9 2 14 4 12 3 -2 2 -23 -1 -47z m14 -24 c-3
-8 -6 -5 -6 6 -1 11 2 17 5 13 3 -3 4 -12 1 -19z m-1717 -18 c0 -11 5 -20 10
-20 6 0 10 -16 10 -35 0 -47 -14 -44 -29 6 -7 23 -15 47 -18 55 -3 8 1 14 11
14 9 0 16 -8 16 -20z m1720 -70 c0 -11 -4 -20 -10 -20 -5 0 -10 9 -10 20 0 11
5 20 10 20 6 0 10 -9 10 -20z m-1680 -50 c0 -16 5 -30 10 -30 6 0 10 -9 10
-20 0 -11 5 -20 10 -20 6 0 10 -11 10 -25 0 -14 -3 -25 -8 -25 -9 0 -61 133
-55 143 10 17 23 5 23 -23z m1700 -50 c0 -11 -4 -20 -10 -20 -5 0 -10 9 -10
20 0 11 5 20 10 20 6 0 10 -9 10 -20z m-1623 -127 c8 -6 13 -17 11 -24 -2 -7
-14 4 -27 24 -14 22 -19 42 -14 49 5 9 9 5 11 -12 2 -14 10 -30 19 -37z m1640
25 c-3 -7 -5 -2 -5 12 0 14 2 19 5 13 2 -7 2 -19 0 -25z m-1607 -94 c0 -8 -4
-12 -10 -9 -5 3 -10 13 -10 21 0 8 5 12 10 9 6 -3 10 -13 10 -21z m20 -44 c0
-11 5 -20 10 -20 6 0 10 -9 10 -20 0 -11 5 -20 10 -20 6 0 10 -9 10 -20 0 -11
5 -20 10 -20 6 0 10 -11 10 -25 0 -14 5 -25 10 -25 6 0 10 -4 10 -10 0 -25
-19 -6 -41 43 -13 28 -27 54 -31 55 -5 2 -8 12 -8 22 0 10 -4 22 -10 25 -5 3
-10 13 -10 21 0 8 5 14 10 14 6 0 10 -9 10 -20z m1657 -42 c-3 -8 -6 -5 -6 6
-1 11 2 17 5 13 3 -3 4 -12 1 -19z m20 -70 c-3 -7 -5 -2 -5 12 0 14 2 19 5 13
2 -7 2 -19 0 -25z m20 -60 c-3 -8 -6 -5 -6 6 -1 11 2 17 5 13 3 -3 4 -12 1
-19z m-1572 -64 c13 -14 21 -32 18 -40 -3 -8 1 -14 11 -14 9 0 16 -7 16 -15 0
-8 5 -15 10 -15 6 0 10 -9 10 -20 0 -11 5 -20 10 -20 6 0 10 -4 10 -10 0 -19
-17 -10 -31 18 -8 15 -22 36 -31 46 -17 19 -22 31 -19 49 0 4 -3 7 -8 7 -15 0
-42 50 -34 63 5 8 9 7 11 -6 2 -10 14 -29 27 -43z m1592 14 c-3 -8 -6 -5 -6 6
-1 11 2 17 5 13 3 -3 4 -12 1 -19z m20 -50 c-3 -8 -6 -5 -6 6 -1 11 2 17 5 13
3 -3 4 -12 1 -19z m-1507 -138 c0 -5 -4 -10 -10 -10 -5 0 -10 5 -10 10 0 6 5
10 10 10 6 0 10 -4 10 -10z m20 -26 c0 -8 -5 -12 -10 -9 -6 4 -8 11 -5 16 9
14 15 11 15 -7z m20 -39 c0 -8 7 -15 16 -15 8 0 12 -5 9 -10 -8 -13 -22 -5
-35 21 -7 13 -7 19 0 19 5 0 10 -7 10 -15z m37 -57 c-3 -8 -6 -5 -6 6 -1 11 2
17 5 13 3 -3 4 -12 1 -19z m1583 -8 c6 -11 8 -20 6 -20 -3 0 -10 9 -16 20 -6
11 -8 20 -6 20 3 0 10 -9 16 -20z m-1543 -25 c8 -9 13 -19 10 -22 -6 -5 -37
21 -37 31 0 10 11 6 27 -9z m668 -695 c3 -5 1 -10 -4 -10 -6 0 -11 5 -11 10 0
6 2 10 4 10 3 0 8 -4 11 -10z m175 -130 c0 -5 -2 -10 -4 -10 -3 0 -8 5 -11 10
-3 6 -1 10 4 10 6 0 11 -4 11 -10z m2060 -734 c0 -3 -4 -8 -10 -11 -5 -3 -10
-1 -10 4 0 6 5 11 10 11 6 0 10 -2 10 -4z m-3100 -176 c0 -5 -11 -10 -25 -10
-14 0 -25 5 -25 10 0 6 11 10 25 10 14 0 25 -4 25 -10z m60 -26 c0 -11 6 -14
20 -9 12 4 31 1 43 -7 12 -8 32 -13 45 -12 31 2 28 -14 -5 -22 -18 -5 -30 -2
-38 9 -7 9 -14 14 -17 11 -3 -2 -24 1 -47 8 -42 13 -56 38 -21 38 11 0 20 -7
20 -16z m198 -61 c2 -9 -8 -13 -32 -13 -20 0 -36 4 -36 9 0 22 60 25 68 4z
m77 -23 c-3 -5 -19 -10 -36 -10 -16 0 -29 5 -29 10 0 6 16 10 36 10 21 0 33
-4 29 -10z m2005 0 c0 -5 -16 -10 -35 -10 -19 0 -35 -4 -35 -10 0 -5 -20 -10
-45 -10 -25 0 -45 5 -45 10 0 6 20 10 45 10 25 0 45 5 45 10 0 6 16 10 35 10
19 0 35 -4 35 -10z m-1940 -20 c0 -5 -13 -10 -30 -10 -16 0 -30 5 -30 10 0 6
14 10 30 10 17 0 30 -4 30 -10z m112 -22 c3 -8 18 -12 40 -10 20 2 39 -1 43
-7 4 -7 -10 -11 -39 -11 -25 0 -46 5 -46 10 0 6 -20 10 -45 10 -25 0 -45 5
-45 10 0 15 88 12 92 -2z m1658 2 c0 -5 -16 -10 -35 -10 -19 0 -35 5 -35 10 0
6 16 10 35 10 19 0 35 -4 35 -10z m-90 -20 c0 -5 -18 -10 -40 -10 -22 0 -40 5
-40 10 0 6 18 10 40 10 22 0 40 -4 40 -10z m-1360 -19 c0 -13 -26 -21 -65 -21
-33 0 -51 11 -38 24 10 9 103 7 103 -3z m1253 -6 c-4 -15 -86 -12 -91 3 -3 10
8 12 44 10 27 -2 48 -7 47 -13z m-1133 -15 c10 -1 8 -5 -7 -12 -13 -6 -37 -7
-60 -3 l-38 8 30 7 c17 3 37 5 45 4 8 -1 22 -3 30 -4z m991 5 c32 -10 11 -25
-36 -25 -50 0 -82 9 -66 19 15 10 79 13 102 6z m-761 -24 c33 -3 33 -4 10 -11
-33 -11 -99 -12 -141 -3 l-34 8 40 5 c40 5 62 5 125 1z m595 0 l40 -8 -48 -8
c-39 -6 -142 -3 -192 7 -11 1 93 14 135 16 14 0 43 -3 65 -7z m-315 -31 c-9
-4 -31 -5 -50 0 -34 8 -33 8 15 9 34 0 45 -3 35 -9z m1750 -112 c0 -38 -38
-245 -60 -332 -46 -176 -182 -536 -188 -496 -2 12 1 27 7 33 6 6 11 19 11 29
0 10 5 18 10 18 6 0 10 14 10 30 0 17 5 30 10 30 6 0 10 11 10 24 0 13 3 26 8
28 10 4 54 137 56 172 1 16 8 32 14 34 7 2 12 17 12 33 0 16 5 29 10 29 6 0
10 20 10 45 0 25 5 45 10 45 6 0 10 18 10 40 0 22 5 40 10 40 6 0 10 20 10 45
0 25 5 45 10 45 6 0 10 28 10 65 0 37 4 65 10 65 6 0 10 -10 10 -22z m-263
-880 c-3 -7 -5 -2 -5 12 0 14 2 19 5 13 2 -7 2 -19 0 -25z m-17 -33 c0 -8 -4
-15 -10 -15 -5 0 -10 7 -10 15 0 8 5 15 10 15 6 0 10 -7 10 -15z m-20 -40 c0
-8 -4 -15 -10 -15 -5 0 -7 7 -4 15 4 8 8 15 10 15 2 0 4 -7 4 -15z m-53 -97
c-3 -8 -6 -5 -6 6 -1 11 2 17 5 13 3 -3 4 -12 1 -19z m-20 -40 c-3 -8 -6 -5
-6 6 -1 11 2 17 5 13 3 -3 4 -12 1 -19z m-20 -40 c-3 -8 -6 -5 -6 6 -1 11 2
17 5 13 3 -3 4 -12 1 -19z m-84 -143 c-3 -9 -8 -14 -10 -11 -3 3 -2 9 2 15 9
16 15 13 8 -4z m-18 -35 c3 -5 1 -10 -4 -10 -6 0 -11 5 -11 10 0 6 2 10 4 10
3 0 8 -4 11 -10z m-68 -112 c-3 -8 -6 -5 -6 6 -1 11 2 17 5 13 3 -3 4 -12 1
-19z m-57 -78 c0 -5 -5 -10 -11 -10 -5 0 -7 5 -4 10 3 6 8 10 11 10 2 0 4 -4
4 -10z m-46 -76 c3 -8 2 -12 -4 -9 -6 3 -10 10 -10 16 0 14 7 11 14 -7z m-76
-93 c-7 -12 -16 -21 -20 -21 -5 0 -8 -7 -8 -15 0 -8 -4 -15 -8 -15 -5 0 -15
-11 -22 -25 -7 -14 -17 -25 -22 -25 -15 0 -8 18 17 41 13 13 25 28 25 32 0 9
43 56 48 52 2 -2 -3 -12 -10 -24z m-88 -109 c0 -4 -32 -41 -70 -82 -39 -41
-80 -85 -92 -98 -11 -12 -23 -20 -26 -17 -3 3 5 13 16 24 12 10 22 21 22 24 0
3 12 19 28 34 15 16 45 50 67 76 38 44 55 56 55 39z m-180 -212 c12 -8 11 -10
-7 -10 -13 0 -23 5 -23 10 0 13 11 13 30 0z m-20 -20 c12 -8 11 -10 -7 -10
-13 0 -23 5 -23 10 0 13 11 13 30 0z m-1277 -807 c-7 -2 -19 -2 -25 0 -7 3 -2
5 12 5 14 0 19 -2 13 -5z m-56 -19 c-3 -3 -12 -4 -19 -1 -8 3 -5 6 6 6 11 1
17 -2 13 -5z"/>
<path d="M5853 10100 c0 -41 2 -58 4 -37 2 20 2 54 0 75 -2 20 -4 3 -4 -38z"/>
<path d="M2742 9920 c0 -14 2 -19 5 -12 2 6 2 18 0 25 -3 6 -5 1 -5 -13z"/>
<path d="M863 9570 c0 -25 2 -35 4 -22 2 12 2 32 0 45 -2 12 -4 2 -4 -23z"/>
<path d="M2940 6305 c0 -8 4 -15 10 -15 5 0 7 7 4 15 -4 8 -8 15 -10 15 -2 0
-4 -7 -4 -15z"/>
<path d="M5608 6123 c6 -2 18 -2 25 0 6 3 1 5 -13 5 -14 0 -19 -2 -12 -5z"/>
<path d="M2711 2704 c0 -11 3 -14 6 -6 3 7 2 16 -1 19 -3 4 -6 -2 -5 -13z"/>
<path d="M6201 2484 c0 -11 3 -14 6 -6 3 7 2 16 -1 19 -3 4 -6 -2 -5 -13z"/>
<path d="M5814 2017 c-44 -33 -214 -200 -210 -205 3 -2 25 16 49 40 74 72 117
108 129 108 6 0 9 3 5 6 -6 7 16 34 28 34 10 0 38 30 33 35 -2 3 -17 -5 -34
-18z"/>
<path d="M4768 1263 c7 -3 16 -2 19 1 4 3 -2 6 -13 5 -11 0 -14 -3 -6 -6z"/>
</g>
</svg>
